%TF.GenerationSoftware,KiCad,Pcbnew,9.0.1*%
%TF.CreationDate,2025-04-20T20:44:27+02:00*%
%TF.ProjectId,Garcouille_V1,47617263-6f75-4696-9c6c-655f56312e6b,rev?*%
%TF.SameCoordinates,Original*%
%TF.FileFunction,Legend,Top*%
%TF.FilePolarity,Positive*%
%FSLAX46Y46*%
G04 Gerber Fmt 4.6, Leading zero omitted, Abs format (unit mm)*
G04 Created by KiCad (PCBNEW 9.0.1) date 2025-04-20 20:44:27*
%MOMM*%
%LPD*%
G01*
G04 APERTURE LIST*
G04 Aperture macros list*
%AMRoundRect*
0 Rectangle with rounded corners*
0 $1 Rounding radius*
0 $2 $3 $4 $5 $6 $7 $8 $9 X,Y pos of 4 corners*
0 Add a 4 corners polygon primitive as box body*
4,1,4,$2,$3,$4,$5,$6,$7,$8,$9,$2,$3,0*
0 Add four circle primitives for the rounded corners*
1,1,$1+$1,$2,$3*
1,1,$1+$1,$4,$5*
1,1,$1+$1,$6,$7*
1,1,$1+$1,$8,$9*
0 Add four rect primitives between the rounded corners*
20,1,$1+$1,$2,$3,$4,$5,0*
20,1,$1+$1,$4,$5,$6,$7,0*
20,1,$1+$1,$6,$7,$8,$9,0*
20,1,$1+$1,$8,$9,$2,$3,0*%
G04 Aperture macros list end*
%ADD10C,0.150000*%
%ADD11C,0.120000*%
%ADD12C,1.500000*%
%ADD13O,1.905000X2.000000*%
%ADD14C,1.524000*%
%ADD15R,1.905000X2.000000*%
%ADD16C,1.800000*%
%ADD17C,1.727200*%
%ADD18R,1.727200X1.727200*%
%ADD19RoundRect,0.250000X-0.250000X-0.550000X0.250000X-0.550000X0.250000X0.550000X-0.250000X0.550000X0*%
G04 APERTURE END LIST*
D10*
X137845895Y-67301019D02*
X137845895Y-68110542D01*
X137845895Y-68110542D02*
X137893514Y-68205780D01*
X137893514Y-68205780D02*
X137941133Y-68253400D01*
X137941133Y-68253400D02*
X138036371Y-68301019D01*
X138036371Y-68301019D02*
X138226847Y-68301019D01*
X138226847Y-68301019D02*
X138322085Y-68253400D01*
X138322085Y-68253400D02*
X138369704Y-68205780D01*
X138369704Y-68205780D02*
X138417323Y-68110542D01*
X138417323Y-68110542D02*
X138417323Y-67301019D01*
X138845895Y-67396257D02*
X138893514Y-67348638D01*
X138893514Y-67348638D02*
X138988752Y-67301019D01*
X138988752Y-67301019D02*
X139226847Y-67301019D01*
X139226847Y-67301019D02*
X139322085Y-67348638D01*
X139322085Y-67348638D02*
X139369704Y-67396257D01*
X139369704Y-67396257D02*
X139417323Y-67491495D01*
X139417323Y-67491495D02*
X139417323Y-67586733D01*
X139417323Y-67586733D02*
X139369704Y-67729590D01*
X139369704Y-67729590D02*
X138798276Y-68301019D01*
X138798276Y-68301019D02*
X139417323Y-68301019D01*
X119845714Y-69149104D02*
X120321904Y-69149104D01*
X119750476Y-69434819D02*
X120083809Y-68434819D01*
X120083809Y-68434819D02*
X120417142Y-69434819D01*
X121274285Y-69434819D02*
X120702857Y-69434819D01*
X120988571Y-69434819D02*
X120988571Y-68434819D01*
X120988571Y-68434819D02*
X120893333Y-68577676D01*
X120893333Y-68577676D02*
X120798095Y-68672914D01*
X120798095Y-68672914D02*
X120702857Y-68720533D01*
X114390180Y-75861905D02*
X115390180Y-75861905D01*
X115390180Y-75861905D02*
X115390180Y-76100000D01*
X115390180Y-76100000D02*
X115342561Y-76242857D01*
X115342561Y-76242857D02*
X115247323Y-76338095D01*
X115247323Y-76338095D02*
X115152085Y-76385714D01*
X115152085Y-76385714D02*
X114961609Y-76433333D01*
X114961609Y-76433333D02*
X114818752Y-76433333D01*
X114818752Y-76433333D02*
X114628276Y-76385714D01*
X114628276Y-76385714D02*
X114533038Y-76338095D01*
X114533038Y-76338095D02*
X114437800Y-76242857D01*
X114437800Y-76242857D02*
X114390180Y-76100000D01*
X114390180Y-76100000D02*
X114390180Y-75861905D01*
X115390180Y-77052381D02*
X115390180Y-77147619D01*
X115390180Y-77147619D02*
X115342561Y-77242857D01*
X115342561Y-77242857D02*
X115294942Y-77290476D01*
X115294942Y-77290476D02*
X115199704Y-77338095D01*
X115199704Y-77338095D02*
X115009228Y-77385714D01*
X115009228Y-77385714D02*
X114771133Y-77385714D01*
X114771133Y-77385714D02*
X114580657Y-77338095D01*
X114580657Y-77338095D02*
X114485419Y-77290476D01*
X114485419Y-77290476D02*
X114437800Y-77242857D01*
X114437800Y-77242857D02*
X114390180Y-77147619D01*
X114390180Y-77147619D02*
X114390180Y-77052381D01*
X114390180Y-77052381D02*
X114437800Y-76957143D01*
X114437800Y-76957143D02*
X114485419Y-76909524D01*
X114485419Y-76909524D02*
X114580657Y-76861905D01*
X114580657Y-76861905D02*
X114771133Y-76814286D01*
X114771133Y-76814286D02*
X115009228Y-76814286D01*
X115009228Y-76814286D02*
X115199704Y-76861905D01*
X115199704Y-76861905D02*
X115294942Y-76909524D01*
X115294942Y-76909524D02*
X115342561Y-76957143D01*
X115342561Y-76957143D02*
X115390180Y-77052381D01*
X119694533Y-55776019D02*
X119694533Y-54776019D01*
X119694533Y-54776019D02*
X119932628Y-54776019D01*
X119932628Y-54776019D02*
X120075485Y-54823638D01*
X120075485Y-54823638D02*
X120170723Y-54918876D01*
X120170723Y-54918876D02*
X120218342Y-55014114D01*
X120218342Y-55014114D02*
X120265961Y-55204590D01*
X120265961Y-55204590D02*
X120265961Y-55347447D01*
X120265961Y-55347447D02*
X120218342Y-55537923D01*
X120218342Y-55537923D02*
X120170723Y-55633161D01*
X120170723Y-55633161D02*
X120075485Y-55728400D01*
X120075485Y-55728400D02*
X119932628Y-55776019D01*
X119932628Y-55776019D02*
X119694533Y-55776019D01*
X121027866Y-55252209D02*
X120694533Y-55252209D01*
X120694533Y-55776019D02*
X120694533Y-54776019D01*
X120694533Y-54776019D02*
X121170723Y-54776019D01*
X122123104Y-55776019D02*
X121789771Y-55299828D01*
X121551676Y-55776019D02*
X121551676Y-54776019D01*
X121551676Y-54776019D02*
X121932628Y-54776019D01*
X121932628Y-54776019D02*
X122027866Y-54823638D01*
X122027866Y-54823638D02*
X122075485Y-54871257D01*
X122075485Y-54871257D02*
X122123104Y-54966495D01*
X122123104Y-54966495D02*
X122123104Y-55109352D01*
X122123104Y-55109352D02*
X122075485Y-55204590D01*
X122075485Y-55204590D02*
X122027866Y-55252209D01*
X122027866Y-55252209D02*
X121932628Y-55299828D01*
X121932628Y-55299828D02*
X121551676Y-55299828D01*
X123075485Y-55776019D02*
X122504057Y-55776019D01*
X122789771Y-55776019D02*
X122789771Y-54776019D01*
X122789771Y-54776019D02*
X122694533Y-54918876D01*
X122694533Y-54918876D02*
X122599295Y-55014114D01*
X122599295Y-55014114D02*
X122504057Y-55061733D01*
X139607600Y-51828532D02*
X139655219Y-51685675D01*
X139655219Y-51685675D02*
X139655219Y-51447580D01*
X139655219Y-51447580D02*
X139607600Y-51352342D01*
X139607600Y-51352342D02*
X139559980Y-51304723D01*
X139559980Y-51304723D02*
X139464742Y-51257104D01*
X139464742Y-51257104D02*
X139369504Y-51257104D01*
X139369504Y-51257104D02*
X139274266Y-51304723D01*
X139274266Y-51304723D02*
X139226647Y-51352342D01*
X139226647Y-51352342D02*
X139179028Y-51447580D01*
X139179028Y-51447580D02*
X139131409Y-51638056D01*
X139131409Y-51638056D02*
X139083790Y-51733294D01*
X139083790Y-51733294D02*
X139036171Y-51780913D01*
X139036171Y-51780913D02*
X138940933Y-51828532D01*
X138940933Y-51828532D02*
X138845695Y-51828532D01*
X138845695Y-51828532D02*
X138750457Y-51780913D01*
X138750457Y-51780913D02*
X138702838Y-51733294D01*
X138702838Y-51733294D02*
X138655219Y-51638056D01*
X138655219Y-51638056D02*
X138655219Y-51399961D01*
X138655219Y-51399961D02*
X138702838Y-51257104D01*
X138655219Y-50923770D02*
X139655219Y-50685675D01*
X139655219Y-50685675D02*
X138940933Y-50495199D01*
X138940933Y-50495199D02*
X139655219Y-50304723D01*
X139655219Y-50304723D02*
X138655219Y-50066628D01*
X139655219Y-49161866D02*
X139655219Y-49733294D01*
X139655219Y-49447580D02*
X138655219Y-49447580D01*
X138655219Y-49447580D02*
X138798076Y-49542818D01*
X138798076Y-49542818D02*
X138893314Y-49638056D01*
X138893314Y-49638056D02*
X138940933Y-49733294D01*
D11*
%TO.C,U2*%
X133487800Y-66846200D02*
X133487800Y-62205200D01*
X136756800Y-66846200D02*
X136756800Y-65336200D01*
X140457800Y-66846200D02*
X140457800Y-65336200D01*
X143727800Y-62205200D02*
X133487800Y-62205200D01*
X143727800Y-65336200D02*
X133487800Y-65336200D01*
X143727800Y-66846200D02*
X133487800Y-66846200D01*
X143727800Y-66846200D02*
X143727800Y-62205200D01*
D10*
%TO.C,A1*%
X111670000Y-70250000D02*
X111670000Y-113430000D01*
X111670000Y-70250000D02*
X129450000Y-70250000D01*
X111670000Y-113430000D02*
X129450000Y-113430000D01*
X129450000Y-70250000D02*
X129450000Y-113430000D01*
D11*
%TO.C,SW1*%
X140090400Y-49135200D02*
X142100400Y-49135200D01*
X140090400Y-51855200D02*
X140090400Y-49135200D01*
X140350400Y-51855200D02*
X140100400Y-51855200D01*
X140350400Y-51855200D02*
X140350400Y-52395200D01*
X141920400Y-51855200D02*
X143880400Y-51855200D01*
X143700400Y-49135200D02*
X145710400Y-49135200D01*
X145710400Y-49145200D02*
X145710400Y-51845200D01*
X145710400Y-51855200D02*
X145450400Y-51855200D01*
%TD*%
D12*
%TO.C,*%
X135991600Y-75082400D03*
%TD*%
%TO.C,*%
X133553200Y-81838800D03*
%TD*%
%TO.C,*%
X133959600Y-102158800D03*
%TD*%
%LPC*%
D13*
%TO.C,*%
X136144000Y-43586400D03*
%TD*%
D14*
%TO.C,*%
X105765600Y-55118000D03*
%TD*%
D12*
%TO.C,*%
X135991600Y-75082400D03*
%TD*%
D15*
%TO.C,U2*%
X141147800Y-63576200D03*
D13*
X138607800Y-63576200D03*
X136067800Y-63576200D03*
%TD*%
%TO.C,*%
X142951200Y-43688000D03*
%TD*%
D16*
%TO.C,A1*%
X112940000Y-71520000D03*
X112940000Y-112160000D03*
X128180000Y-71520000D03*
X128180000Y-112160000D03*
D17*
X128180000Y-107080000D03*
X128180000Y-81680000D03*
X128180000Y-102000000D03*
X128180000Y-99460000D03*
X128180000Y-96920000D03*
X128180000Y-94380000D03*
X128180000Y-91840000D03*
X128180000Y-89300000D03*
X128180000Y-86760000D03*
X128180000Y-84220000D03*
X128180000Y-104540000D03*
X128180000Y-79140000D03*
X112940000Y-76600000D03*
X112940000Y-74060000D03*
X112940000Y-84220000D03*
X112940000Y-86760000D03*
X112940000Y-89300000D03*
X112940000Y-91840000D03*
X112940000Y-94380000D03*
X112940000Y-96920000D03*
X112940000Y-99460000D03*
X112940000Y-102000000D03*
X112940000Y-104540000D03*
X112940000Y-107080000D03*
X112940000Y-109620000D03*
X128180000Y-109620000D03*
D18*
X112940000Y-81680000D03*
X128180000Y-76600000D03*
D17*
X112940000Y-79140000D03*
X128180000Y-74060000D03*
%TD*%
D14*
%TO.C,DFR1*%
X128981200Y-65481200D03*
X128981200Y-62941200D03*
X128981200Y-60401200D03*
X128981200Y-57861200D03*
X128981200Y-55321200D03*
X128981200Y-52781200D03*
X128981200Y-50241200D03*
X128981200Y-47701200D03*
X111201200Y-47701200D03*
X111201200Y-50241200D03*
X111201200Y-52781200D03*
X111201200Y-55321200D03*
X111201200Y-57861200D03*
X111201200Y-60401200D03*
X111201200Y-62941200D03*
X111201200Y-65481200D03*
%TD*%
D12*
%TO.C,*%
X133553200Y-81838800D03*
%TD*%
%TO.C,*%
X133959600Y-102158800D03*
%TD*%
D19*
%TO.C,SW1*%
X141150400Y-51645200D03*
X142900400Y-49345200D03*
X144650400Y-51645200D03*
%TD*%
D14*
%TO.C,*%
X105867200Y-50901600D03*
%TD*%
%LPD*%
M02*
