M48
; DRILL file {KiCad 9.0.1} date 2025-04-20T20:45:43+0200
; FORMAT={-:-/ absolute / metric / decimal}
; #@! TF.CreationDate,2025-04-20T20:45:43+02:00
; #@! TF.GenerationSoftware,Kicad,Pcbnew,9.0.1
; #@! TF.FileFunction,Plated,1,2,PTH
FMAT,2
METRIC
; #@! TA.AperFunction,Plated,PTH,ComponentDrill
T1C0.762
; #@! TA.AperFunction,Plated,PTH,ComponentDrill
T2C0.900
; #@! TA.AperFunction,Plated,PTH,ComponentDrill
T3C1.016
; #@! TA.AperFunction,Plated,PTH,ComponentDrill
T4C1.100
%
G90
G05
T1
X105.766Y-55.118
X105.867Y-50.902
X111.201Y-47.701
X111.201Y-50.241
X111.201Y-52.781
X111.201Y-55.321
X111.201Y-57.861
X111.201Y-60.401
X111.201Y-62.941
X111.201Y-65.481
X128.981Y-47.701
X128.981Y-50.241
X128.981Y-52.781
X128.981Y-55.321
X128.981Y-57.861
X128.981Y-60.401
X128.981Y-62.941
X128.981Y-65.481
T2
X133.553Y-81.839
X133.96Y-102.159
X135.992Y-75.082
T3
X112.94Y-74.06
X112.94Y-76.6
X112.94Y-79.14
X112.94Y-81.68
X112.94Y-84.22
X112.94Y-86.76
X112.94Y-89.3
X112.94Y-91.84
X112.94Y-94.38
X112.94Y-96.92
X112.94Y-99.46
X112.94Y-102.0
X112.94Y-104.54
X112.94Y-107.08
X112.94Y-109.62
X128.18Y-74.06
X128.18Y-76.6
X128.18Y-79.14
X128.18Y-81.68
X128.18Y-84.22
X128.18Y-86.76
X128.18Y-89.3
X128.18Y-91.84
X128.18Y-94.38
X128.18Y-96.92
X128.18Y-99.46
X128.18Y-102.0
X128.18Y-104.54
X128.18Y-107.08
X128.18Y-109.62
T4
X136.068Y-63.576
X136.144Y-43.586
X138.608Y-63.576
X141.148Y-63.576
X142.951Y-43.688
M30
