%TF.GenerationSoftware,KiCad,Pcbnew,9.0.1*%
%TF.CreationDate,2025-04-20T20:44:27+02:00*%
%TF.ProjectId,Garcouille_V1,47617263-6f75-4696-9c6c-655f56312e6b,rev?*%
%TF.SameCoordinates,Original*%
%TF.FileFunction,Copper,L1,Top*%
%TF.FilePolarity,Positive*%
%FSLAX46Y46*%
G04 Gerber Fmt 4.6, Leading zero omitted, Abs format (unit mm)*
G04 Created by KiCad (PCBNEW 9.0.1) date 2025-04-20 20:44:27*
%MOMM*%
%LPD*%
G01*
G04 APERTURE LIST*
G04 Aperture macros list*
%AMRoundRect*
0 Rectangle with rounded corners*
0 $1 Rounding radius*
0 $2 $3 $4 $5 $6 $7 $8 $9 X,Y pos of 4 corners*
0 Add a 4 corners polygon primitive as box body*
4,1,4,$2,$3,$4,$5,$6,$7,$8,$9,$2,$3,0*
0 Add four circle primitives for the rounded corners*
1,1,$1+$1,$2,$3*
1,1,$1+$1,$4,$5*
1,1,$1+$1,$6,$7*
1,1,$1+$1,$8,$9*
0 Add four rect primitives between the rounded corners*
20,1,$1+$1,$2,$3,$4,$5,0*
20,1,$1+$1,$4,$5,$6,$7,0*
20,1,$1+$1,$6,$7,$8,$9,0*
20,1,$1+$1,$8,$9,$2,$3,0*%
G04 Aperture macros list end*
%TA.AperFunction,ComponentPad*%
%ADD10O,1.905000X2.000000*%
%TD*%
%TA.AperFunction,ComponentPad*%
%ADD11C,1.524000*%
%TD*%
%TA.AperFunction,ComponentPad*%
%ADD12C,1.500000*%
%TD*%
%TA.AperFunction,ComponentPad*%
%ADD13R,1.905000X2.000000*%
%TD*%
%TA.AperFunction,ComponentPad*%
%ADD14C,1.727200*%
%TD*%
%TA.AperFunction,ComponentPad*%
%ADD15R,1.727200X1.727200*%
%TD*%
%TA.AperFunction,SMDPad,CuDef*%
%ADD16RoundRect,0.250000X-0.250000X-0.550000X0.250000X-0.550000X0.250000X0.550000X-0.250000X0.550000X0*%
%TD*%
%TA.AperFunction,Conductor*%
%ADD17C,0.500000*%
%TD*%
%TA.AperFunction,Conductor*%
%ADD18C,0.700000*%
%TD*%
%TA.AperFunction,Conductor*%
%ADD19C,0.200000*%
%TD*%
G04 APERTURE END LIST*
D10*
%TO.P,,3,VO*%
%TO.N,GND*%
X136144000Y-43586400D03*
%TD*%
D11*
%TO.P,,8,SPK2*%
%TO.N,Net-(DFR1-SPK2)*%
X105765600Y-55118000D03*
%TD*%
D12*
%TO.P,,3,VCC*%
%TO.N,Net-(DFR1-VCC)*%
X135991600Y-75082400D03*
%TD*%
D13*
%TO.P,U2,1,VI*%
%TO.N,Net-(SW1-C)*%
X141147800Y-63576200D03*
D10*
%TO.P,U2,2,GND*%
%TO.N,GND*%
X138607800Y-63576200D03*
%TO.P,U2,3,VO*%
%TO.N,Net-(DFR1-VCC)*%
X136067800Y-63576200D03*
%TD*%
%TO.P,,3,VO*%
%TO.N,+9V*%
X142951200Y-43688000D03*
%TD*%
D14*
%TO.P,A1,3V3,3.3V*%
%TO.N,unconnected-(A1-3.3V-Pad3V3)*%
X128180000Y-107080000D03*
%TO.P,A1,5V,5V*%
%TO.N,unconnected-(A1-Pad5V)*%
X128180000Y-81680000D03*
%TO.P,A1,A0,A0*%
%TO.N,Net-(SR1-OUT)*%
X128180000Y-102000000D03*
%TO.P,A1,A1,A1*%
%TO.N,unconnected-(A1-PadA1)*%
X128180000Y-99460000D03*
%TO.P,A1,A2,A2*%
%TO.N,unconnected-(A1-PadA2)*%
X128180000Y-96920000D03*
%TO.P,A1,A3,A3*%
%TO.N,unconnected-(A1-PadA3)*%
X128180000Y-94380000D03*
%TO.P,A1,A4,A4/SDA*%
%TO.N,unconnected-(A1-A4{slash}SDA-PadA4)*%
X128180000Y-91840000D03*
%TO.P,A1,A5,A5/SCL*%
%TO.N,unconnected-(A1-A5{slash}SCL-PadA5)*%
X128180000Y-89300000D03*
%TO.P,A1,A6,A6*%
%TO.N,unconnected-(A1-PadA6)*%
X128180000Y-86760000D03*
%TO.P,A1,A7,A7*%
%TO.N,unconnected-(A1-PadA7)*%
X128180000Y-84220000D03*
%TO.P,A1,B0,B0*%
%TO.N,unconnected-(A1-PadB0)*%
X128180000Y-104540000D03*
%TO.P,A1,B1,B1*%
%TO.N,unconnected-(A1-PadB1)*%
X128180000Y-79140000D03*
%TO.P,A1,D0,D0/RX*%
%TO.N,Net-(A1-D0{slash}RX)*%
X112940000Y-76600000D03*
%TO.P,A1,D1,D1/TX*%
%TO.N,Net-(A1-D1{slash}TX)*%
X112940000Y-74060000D03*
%TO.P,A1,D2,D2*%
%TO.N,unconnected-(A1-PadD2)*%
X112940000Y-84220000D03*
%TO.P,A1,D3,D3*%
%TO.N,unconnected-(A1-PadD3)*%
X112940000Y-86760000D03*
%TO.P,A1,D4,D4*%
%TO.N,Net-(DFR1-BUSY)*%
X112940000Y-89300000D03*
%TO.P,A1,D5,D5*%
%TO.N,unconnected-(A1-PadD5)*%
X112940000Y-91840000D03*
%TO.P,A1,D6,D6*%
%TO.N,unconnected-(A1-PadD6)*%
X112940000Y-94380000D03*
%TO.P,A1,D7,D7*%
%TO.N,unconnected-(A1-PadD7)*%
X112940000Y-96920000D03*
%TO.P,A1,D8,D8*%
%TO.N,unconnected-(A1-PadD8)*%
X112940000Y-99460000D03*
%TO.P,A1,D9,D9*%
%TO.N,unconnected-(A1-PadD9)*%
X112940000Y-102000000D03*
%TO.P,A1,D10,D10*%
%TO.N,unconnected-(A1-PadD10)*%
X112940000Y-104540000D03*
%TO.P,A1,D11,D11_MOSI*%
%TO.N,unconnected-(A1-D11_MOSI-PadD11)*%
X112940000Y-107080000D03*
%TO.P,A1,D12,D12_MISO*%
%TO.N,unconnected-(A1-D12_MISO-PadD12)*%
X112940000Y-109620000D03*
%TO.P,A1,D13,D13_SCK*%
%TO.N,unconnected-(A1-D13_SCK-PadD13)*%
X128180000Y-109620000D03*
D15*
%TO.P,A1,GND1,GND*%
%TO.N,GND*%
X112940000Y-81680000D03*
%TO.P,A1,GND2,GND*%
X128180000Y-76600000D03*
D14*
%TO.P,A1,RST,~{RESET}*%
%TO.N,unconnected-(A1-~{RESET}-PadRST)*%
X112940000Y-79140000D03*
%TO.P,A1,VIN,VIN*%
%TO.N,Net-(SW1-C)*%
X128180000Y-74060000D03*
%TD*%
D11*
%TO.P,DFR1,1,VCC*%
%TO.N,Net-(DFR1-VCC)*%
X128981200Y-65481200D03*
%TO.P,DFR1,2,RX*%
%TO.N,Net-(A1-D1{slash}TX)*%
X128981200Y-62941200D03*
%TO.P,DFR1,3,TX*%
%TO.N,Net-(A1-D0{slash}RX)*%
X128981200Y-60401200D03*
%TO.P,DFR1,4,DAC_R*%
%TO.N,unconnected-(DFR1-DAC_R-Pad4)*%
X128981200Y-57861200D03*
%TO.P,DFR1,5,DAC_I*%
%TO.N,unconnected-(DFR1-DAC_I-Pad5)*%
X128981200Y-55321200D03*
%TO.P,DFR1,6,SPK1*%
%TO.N,Net-(DFR1-SPK1)*%
X128981200Y-52781200D03*
%TO.P,DFR1,7,GND*%
%TO.N,GND*%
X128981200Y-50241200D03*
%TO.P,DFR1,8,SPK2*%
%TO.N,Net-(DFR1-SPK2)*%
X128981200Y-47701200D03*
%TO.P,DFR1,9,IO_2*%
%TO.N,unconnected-(DFR1-IO_2-Pad9)*%
X111201200Y-47701200D03*
%TO.P,DFR1,10,GND*%
%TO.N,unconnected-(DFR1-GND-Pad10)*%
X111201200Y-50241200D03*
%TO.P,DFR1,11,IO_2*%
%TO.N,unconnected-(DFR1-IO_2-Pad11)*%
X111201200Y-52781200D03*
%TO.P,DFR1,12,ADKEY_1*%
%TO.N,unconnected-(DFR1-ADKEY_1-Pad12)*%
X111201200Y-55321200D03*
%TO.P,DFR1,13,ADKEY_2*%
%TO.N,unconnected-(DFR1-ADKEY_2-Pad13)*%
X111201200Y-57861200D03*
%TO.P,DFR1,14,USB+*%
%TO.N,unconnected-(DFR1-USB+-Pad14)*%
X111201200Y-60401200D03*
%TO.P,DFR1,15,USB-*%
%TO.N,unconnected-(DFR1-USB--Pad15)*%
X111201200Y-62941200D03*
%TO.P,DFR1,16,BUSY*%
%TO.N,Net-(DFR1-BUSY)*%
X111201200Y-65481200D03*
%TD*%
D12*
%TO.P,,1,GND*%
%TO.N,GND*%
X133553200Y-81838800D03*
%TD*%
%TO.P,,2,OUT*%
%TO.N,Net-(SR1-OUT)*%
X133959600Y-102158800D03*
%TD*%
D16*
%TO.P,SW1,1,C*%
%TO.N,Net-(SW1-C)*%
X141150400Y-51645200D03*
%TO.P,SW1,2,B*%
%TO.N,+9V*%
X142900400Y-49345200D03*
%TO.P,SW1,3,A*%
%TO.N,unconnected-(SW1-A-Pad3)*%
X144650400Y-51645200D03*
%TD*%
D11*
%TO.P,,6,SPK1*%
%TO.N,Net-(DFR1-SPK1)*%
X105867200Y-50901600D03*
%TD*%
D17*
%TO.N,Net-(A1-D0{slash}RX)*%
X128981200Y-60558800D02*
X128981200Y-60401200D01*
D18*
X112940000Y-76600000D02*
X128981200Y-60558800D01*
%TO.N,GND*%
X136067800Y-49428400D02*
X136067800Y-43662600D01*
D19*
X136067800Y-43662600D02*
X136144000Y-43586400D01*
D18*
X135255000Y-50241200D02*
X128981200Y-50241200D01*
X136067800Y-60375800D02*
X136067800Y-49428400D01*
D19*
X128180000Y-76600000D02*
X127360000Y-76600000D01*
D18*
X138633200Y-62941200D02*
X136067800Y-60375800D01*
D17*
X138607800Y-63576200D02*
X134213600Y-67970400D01*
X125984000Y-67970400D02*
X124129800Y-69824600D01*
D18*
X136067800Y-49428400D02*
X135255000Y-50241200D01*
D17*
X134213600Y-67970400D02*
X125984000Y-67970400D01*
X124129800Y-72549800D02*
X128180000Y-76600000D01*
X124129800Y-69824600D02*
X124129800Y-72549800D01*
D19*
X135636000Y-43586400D02*
X136144000Y-43586400D01*
D17*
%TO.N,Net-(A1-D1{slash}TX)*%
X112940000Y-74060000D02*
X113392000Y-74060000D01*
%TO.N,Net-(DFR1-BUSY)*%
X110185200Y-86545200D02*
X110185200Y-66497200D01*
X112940000Y-89300000D02*
X110185200Y-86545200D01*
X110185200Y-66497200D02*
X111201200Y-65481200D01*
D18*
%TO.N,Net-(SR1-OUT)*%
X133959600Y-102158800D02*
X133800800Y-102000000D01*
X133800800Y-102000000D02*
X128180000Y-102000000D01*
%TO.N,+9V*%
X142900400Y-49345200D02*
X142900400Y-43738800D01*
X142900400Y-43738800D02*
X142951200Y-43688000D01*
D17*
%TO.N,Net-(SW1-C)*%
X141147800Y-63576200D02*
X130664000Y-74060000D01*
D18*
X141150400Y-51645200D02*
X141122400Y-51673200D01*
X140667800Y-63096200D02*
X141147800Y-63576200D01*
X141122400Y-51673200D02*
X141122400Y-63550800D01*
D17*
X130664000Y-74060000D02*
X128180000Y-74060000D01*
D18*
X141122400Y-63550800D02*
X141147800Y-63576200D01*
D17*
%TO.N,Net-(DFR1-VCC)*%
X134112000Y-65532000D02*
X135692000Y-63952000D01*
X129032000Y-65532000D02*
X134112000Y-65532000D01*
D19*
X136067800Y-63576200D02*
X135692000Y-63952000D01*
D17*
%TO.N,Net-(DFR1-SPK2)*%
X108407200Y-45821600D02*
X107696000Y-46532800D01*
X128981200Y-47701200D02*
X127101600Y-45821600D01*
X107696000Y-53136800D02*
X105765600Y-55067200D01*
X107696000Y-46532800D02*
X107696000Y-53136800D01*
X127101600Y-45821600D02*
X108407200Y-45821600D01*
X105765600Y-55067200D02*
X105765600Y-55118000D01*
%TD*%
M02*
