%TF.GenerationSoftware,KiCad,Pcbnew,9.0.1*%
%TF.CreationDate,2025-04-20T20:44:27+02:00*%
%TF.ProjectId,Garcouille_V1,47617263-6f75-4696-9c6c-655f56312e6b,rev?*%
%TF.SameCoordinates,Original*%
%TF.FileFunction,Copper,L2,Bot*%
%TF.FilePolarity,Positive*%
%FSLAX46Y46*%
G04 Gerber Fmt 4.6, Leading zero omitted, Abs format (unit mm)*
G04 Created by KiCad (PCBNEW 9.0.1) date 2025-04-20 20:44:27*
%MOMM*%
%LPD*%
G01*
G04 APERTURE LIST*
%ADD10C,0.300000*%
%TA.AperFunction,NonConductor*%
%ADD11C,0.300000*%
%TD*%
%TA.AperFunction,ComponentPad*%
%ADD12O,1.905000X2.000000*%
%TD*%
%TA.AperFunction,ComponentPad*%
%ADD13C,1.524000*%
%TD*%
%TA.AperFunction,ComponentPad*%
%ADD14C,1.500000*%
%TD*%
%TA.AperFunction,ComponentPad*%
%ADD15R,1.905000X2.000000*%
%TD*%
%TA.AperFunction,ComponentPad*%
%ADD16C,1.727200*%
%TD*%
%TA.AperFunction,ComponentPad*%
%ADD17R,1.727200X1.727200*%
%TD*%
%TA.AperFunction,Conductor*%
%ADD18C,0.700000*%
%TD*%
%TA.AperFunction,Conductor*%
%ADD19C,0.200000*%
%TD*%
%TA.AperFunction,Conductor*%
%ADD20C,0.500000*%
%TD*%
G04 APERTURE END LIST*
D10*
D11*
X139948025Y-81299425D02*
X139876596Y-81156568D01*
X139876596Y-81156568D02*
X139876596Y-80942282D01*
X139876596Y-80942282D02*
X139948025Y-80727996D01*
X139948025Y-80727996D02*
X140090882Y-80585139D01*
X140090882Y-80585139D02*
X140233739Y-80513710D01*
X140233739Y-80513710D02*
X140519453Y-80442282D01*
X140519453Y-80442282D02*
X140733739Y-80442282D01*
X140733739Y-80442282D02*
X141019453Y-80513710D01*
X141019453Y-80513710D02*
X141162310Y-80585139D01*
X141162310Y-80585139D02*
X141305168Y-80727996D01*
X141305168Y-80727996D02*
X141376596Y-80942282D01*
X141376596Y-80942282D02*
X141376596Y-81085139D01*
X141376596Y-81085139D02*
X141305168Y-81299425D01*
X141305168Y-81299425D02*
X141233739Y-81370853D01*
X141233739Y-81370853D02*
X140733739Y-81370853D01*
X140733739Y-81370853D02*
X140733739Y-81085139D01*
X141376596Y-82656568D02*
X140590882Y-82656568D01*
X140590882Y-82656568D02*
X140448025Y-82585139D01*
X140448025Y-82585139D02*
X140376596Y-82442282D01*
X140376596Y-82442282D02*
X140376596Y-82156568D01*
X140376596Y-82156568D02*
X140448025Y-82013710D01*
X141305168Y-82656568D02*
X141376596Y-82513710D01*
X141376596Y-82513710D02*
X141376596Y-82156568D01*
X141376596Y-82156568D02*
X141305168Y-82013710D01*
X141305168Y-82013710D02*
X141162310Y-81942282D01*
X141162310Y-81942282D02*
X141019453Y-81942282D01*
X141019453Y-81942282D02*
X140876596Y-82013710D01*
X140876596Y-82013710D02*
X140805168Y-82156568D01*
X140805168Y-82156568D02*
X140805168Y-82513710D01*
X140805168Y-82513710D02*
X140733739Y-82656568D01*
X141376596Y-83370853D02*
X140376596Y-83370853D01*
X140662310Y-83370853D02*
X140519453Y-83442282D01*
X140519453Y-83442282D02*
X140448025Y-83513711D01*
X140448025Y-83513711D02*
X140376596Y-83656568D01*
X140376596Y-83656568D02*
X140376596Y-83799425D01*
X141305168Y-84942282D02*
X141376596Y-84799424D01*
X141376596Y-84799424D02*
X141376596Y-84513710D01*
X141376596Y-84513710D02*
X141305168Y-84370853D01*
X141305168Y-84370853D02*
X141233739Y-84299424D01*
X141233739Y-84299424D02*
X141090882Y-84227996D01*
X141090882Y-84227996D02*
X140662310Y-84227996D01*
X140662310Y-84227996D02*
X140519453Y-84299424D01*
X140519453Y-84299424D02*
X140448025Y-84370853D01*
X140448025Y-84370853D02*
X140376596Y-84513710D01*
X140376596Y-84513710D02*
X140376596Y-84799424D01*
X140376596Y-84799424D02*
X140448025Y-84942282D01*
X141376596Y-85799424D02*
X141305168Y-85656567D01*
X141305168Y-85656567D02*
X141233739Y-85585138D01*
X141233739Y-85585138D02*
X141090882Y-85513710D01*
X141090882Y-85513710D02*
X140662310Y-85513710D01*
X140662310Y-85513710D02*
X140519453Y-85585138D01*
X140519453Y-85585138D02*
X140448025Y-85656567D01*
X140448025Y-85656567D02*
X140376596Y-85799424D01*
X140376596Y-85799424D02*
X140376596Y-86013710D01*
X140376596Y-86013710D02*
X140448025Y-86156567D01*
X140448025Y-86156567D02*
X140519453Y-86227996D01*
X140519453Y-86227996D02*
X140662310Y-86299424D01*
X140662310Y-86299424D02*
X141090882Y-86299424D01*
X141090882Y-86299424D02*
X141233739Y-86227996D01*
X141233739Y-86227996D02*
X141305168Y-86156567D01*
X141305168Y-86156567D02*
X141376596Y-86013710D01*
X141376596Y-86013710D02*
X141376596Y-85799424D01*
X140376596Y-87585139D02*
X141376596Y-87585139D01*
X140376596Y-86942281D02*
X141162310Y-86942281D01*
X141162310Y-86942281D02*
X141305168Y-87013710D01*
X141305168Y-87013710D02*
X141376596Y-87156567D01*
X141376596Y-87156567D02*
X141376596Y-87370853D01*
X141376596Y-87370853D02*
X141305168Y-87513710D01*
X141305168Y-87513710D02*
X141233739Y-87585139D01*
X141376596Y-88299424D02*
X140376596Y-88299424D01*
X139876596Y-88299424D02*
X139948025Y-88227996D01*
X139948025Y-88227996D02*
X140019453Y-88299424D01*
X140019453Y-88299424D02*
X139948025Y-88370853D01*
X139948025Y-88370853D02*
X139876596Y-88299424D01*
X139876596Y-88299424D02*
X140019453Y-88299424D01*
X141376596Y-89227996D02*
X141305168Y-89085139D01*
X141305168Y-89085139D02*
X141162310Y-89013710D01*
X141162310Y-89013710D02*
X139876596Y-89013710D01*
X141376596Y-90013710D02*
X141305168Y-89870853D01*
X141305168Y-89870853D02*
X141162310Y-89799424D01*
X141162310Y-89799424D02*
X139876596Y-89799424D01*
X141305168Y-91156567D02*
X141376596Y-91013710D01*
X141376596Y-91013710D02*
X141376596Y-90727996D01*
X141376596Y-90727996D02*
X141305168Y-90585138D01*
X141305168Y-90585138D02*
X141162310Y-90513710D01*
X141162310Y-90513710D02*
X140590882Y-90513710D01*
X140590882Y-90513710D02*
X140448025Y-90585138D01*
X140448025Y-90585138D02*
X140376596Y-90727996D01*
X140376596Y-90727996D02*
X140376596Y-91013710D01*
X140376596Y-91013710D02*
X140448025Y-91156567D01*
X140448025Y-91156567D02*
X140590882Y-91227996D01*
X140590882Y-91227996D02*
X140733739Y-91227996D01*
X140733739Y-91227996D02*
X140876596Y-90513710D01*
X139876596Y-92799424D02*
X141376596Y-93299424D01*
X141376596Y-93299424D02*
X139876596Y-93799424D01*
X141376596Y-95085138D02*
X141376596Y-94227995D01*
X141376596Y-94656566D02*
X139876596Y-94656566D01*
X139876596Y-94656566D02*
X140090882Y-94513709D01*
X140090882Y-94513709D02*
X140233739Y-94370852D01*
X140233739Y-94370852D02*
X140305168Y-94227995D01*
X143791512Y-80513710D02*
X142291512Y-80513710D01*
X143005798Y-80513710D02*
X143005798Y-81370853D01*
X143791512Y-81370853D02*
X142291512Y-81370853D01*
X143720084Y-82656568D02*
X143791512Y-82513711D01*
X143791512Y-82513711D02*
X143791512Y-82227997D01*
X143791512Y-82227997D02*
X143720084Y-82085139D01*
X143720084Y-82085139D02*
X143577226Y-82013711D01*
X143577226Y-82013711D02*
X143005798Y-82013711D01*
X143005798Y-82013711D02*
X142862941Y-82085139D01*
X142862941Y-82085139D02*
X142791512Y-82227997D01*
X142791512Y-82227997D02*
X142791512Y-82513711D01*
X142791512Y-82513711D02*
X142862941Y-82656568D01*
X142862941Y-82656568D02*
X143005798Y-82727997D01*
X143005798Y-82727997D02*
X143148655Y-82727997D01*
X143148655Y-82727997D02*
X143291512Y-82013711D01*
X142791512Y-83370853D02*
X143791512Y-83370853D01*
X142934369Y-83370853D02*
X142862941Y-83442282D01*
X142862941Y-83442282D02*
X142791512Y-83585139D01*
X142791512Y-83585139D02*
X142791512Y-83799425D01*
X142791512Y-83799425D02*
X142862941Y-83942282D01*
X142862941Y-83942282D02*
X143005798Y-84013711D01*
X143005798Y-84013711D02*
X143791512Y-84013711D01*
X143791512Y-84727996D02*
X142791512Y-84727996D01*
X143077226Y-84727996D02*
X142934369Y-84799425D01*
X142934369Y-84799425D02*
X142862941Y-84870854D01*
X142862941Y-84870854D02*
X142791512Y-85013711D01*
X142791512Y-85013711D02*
X142791512Y-85156568D01*
X142791512Y-85513710D02*
X143791512Y-85870853D01*
X142791512Y-86227996D02*
X143791512Y-85870853D01*
X143791512Y-85870853D02*
X144148655Y-85727996D01*
X144148655Y-85727996D02*
X144220084Y-85656567D01*
X144220084Y-85656567D02*
X144291512Y-85513710D01*
X143791512Y-87942281D02*
X142291512Y-87942281D01*
X143005798Y-87942281D02*
X143005798Y-88799424D01*
X143791512Y-88799424D02*
X142291512Y-88799424D01*
X143362941Y-89442282D02*
X143362941Y-90156568D01*
X143791512Y-89299425D02*
X142291512Y-89799425D01*
X142291512Y-89799425D02*
X143791512Y-90299425D01*
X142291512Y-90585139D02*
X143791512Y-91085139D01*
X143791512Y-91085139D02*
X142291512Y-91585139D01*
X143362941Y-92013710D02*
X143362941Y-92727996D01*
X143791512Y-91870853D02*
X142291512Y-92370853D01*
X142291512Y-92370853D02*
X143791512Y-92870853D01*
X143791512Y-94227995D02*
X143077226Y-93727995D01*
X143791512Y-93370852D02*
X142291512Y-93370852D01*
X142291512Y-93370852D02*
X142291512Y-93942281D01*
X142291512Y-93942281D02*
X142362941Y-94085138D01*
X142362941Y-94085138D02*
X142434369Y-94156567D01*
X142434369Y-94156567D02*
X142577226Y-94227995D01*
X142577226Y-94227995D02*
X142791512Y-94227995D01*
X142791512Y-94227995D02*
X142934369Y-94156567D01*
X142934369Y-94156567D02*
X143005798Y-94085138D01*
X143005798Y-94085138D02*
X143077226Y-93942281D01*
X143077226Y-93942281D02*
X143077226Y-93370852D01*
X143791512Y-94870852D02*
X142291512Y-94870852D01*
X142291512Y-94870852D02*
X142291512Y-95227995D01*
X142291512Y-95227995D02*
X142362941Y-95442281D01*
X142362941Y-95442281D02*
X142505798Y-95585138D01*
X142505798Y-95585138D02*
X142648655Y-95656567D01*
X142648655Y-95656567D02*
X142934369Y-95727995D01*
X142934369Y-95727995D02*
X143148655Y-95727995D01*
X143148655Y-95727995D02*
X143434369Y-95656567D01*
X143434369Y-95656567D02*
X143577226Y-95585138D01*
X143577226Y-95585138D02*
X143720084Y-95442281D01*
X143720084Y-95442281D02*
X143791512Y-95227995D01*
X143791512Y-95227995D02*
X143791512Y-94870852D01*
X142220084Y-97442281D02*
X144148655Y-96156567D01*
X143791512Y-97942281D02*
X142291512Y-97942281D01*
X143791512Y-98799424D02*
X142934369Y-98156567D01*
X142291512Y-98799424D02*
X143148655Y-97942281D01*
X143720084Y-100013710D02*
X143791512Y-99870853D01*
X143791512Y-99870853D02*
X143791512Y-99585139D01*
X143791512Y-99585139D02*
X143720084Y-99442281D01*
X143720084Y-99442281D02*
X143577226Y-99370853D01*
X143577226Y-99370853D02*
X143005798Y-99370853D01*
X143005798Y-99370853D02*
X142862941Y-99442281D01*
X142862941Y-99442281D02*
X142791512Y-99585139D01*
X142791512Y-99585139D02*
X142791512Y-99870853D01*
X142791512Y-99870853D02*
X142862941Y-100013710D01*
X142862941Y-100013710D02*
X143005798Y-100085139D01*
X143005798Y-100085139D02*
X143148655Y-100085139D01*
X143148655Y-100085139D02*
X143291512Y-99370853D01*
X142791512Y-100585138D02*
X143791512Y-100942281D01*
X143791512Y-100942281D02*
X142791512Y-101299424D01*
X143791512Y-101870852D02*
X142791512Y-101870852D01*
X142291512Y-101870852D02*
X142362941Y-101799424D01*
X142362941Y-101799424D02*
X142434369Y-101870852D01*
X142434369Y-101870852D02*
X142362941Y-101942281D01*
X142362941Y-101942281D02*
X142291512Y-101870852D01*
X142291512Y-101870852D02*
X142434369Y-101870852D01*
X142791512Y-102585138D02*
X143791512Y-102585138D01*
X142934369Y-102585138D02*
X142862941Y-102656567D01*
X142862941Y-102656567D02*
X142791512Y-102799424D01*
X142791512Y-102799424D02*
X142791512Y-103013710D01*
X142791512Y-103013710D02*
X142862941Y-103156567D01*
X142862941Y-103156567D02*
X143005798Y-103227996D01*
X143005798Y-103227996D02*
X143791512Y-103227996D01*
X143791512Y-105085138D02*
X142291512Y-105085138D01*
X142291512Y-105085138D02*
X142291512Y-105656567D01*
X142291512Y-105656567D02*
X142362941Y-105799424D01*
X142362941Y-105799424D02*
X142434369Y-105870853D01*
X142434369Y-105870853D02*
X142577226Y-105942281D01*
X142577226Y-105942281D02*
X142791512Y-105942281D01*
X142791512Y-105942281D02*
X142934369Y-105870853D01*
X142934369Y-105870853D02*
X143005798Y-105799424D01*
X143005798Y-105799424D02*
X143077226Y-105656567D01*
X143077226Y-105656567D02*
X143077226Y-105085138D01*
X143791512Y-106585138D02*
X142291512Y-106585138D01*
X143791512Y-107299424D02*
X142291512Y-107299424D01*
X142291512Y-107299424D02*
X143362941Y-107799424D01*
X143362941Y-107799424D02*
X142291512Y-108299424D01*
X142291512Y-108299424D02*
X143791512Y-108299424D01*
X143005798Y-109013710D02*
X143005798Y-109513710D01*
X143791512Y-109727996D02*
X143791512Y-109013710D01*
X143791512Y-109013710D02*
X142291512Y-109013710D01*
X142291512Y-109013710D02*
X142291512Y-109727996D01*
X143791512Y-110370853D02*
X142291512Y-110370853D01*
X142291512Y-110370853D02*
X143791512Y-111227996D01*
X143791512Y-111227996D02*
X142291512Y-111227996D01*
X142291512Y-111727997D02*
X142291512Y-112585140D01*
X143791512Y-112156568D02*
X142291512Y-112156568D01*
X143362941Y-113013711D02*
X143362941Y-113727997D01*
X143791512Y-112870854D02*
X142291512Y-113370854D01*
X142291512Y-113370854D02*
X143791512Y-113870854D01*
X144706428Y-80799425D02*
X144706428Y-80942282D01*
X144706428Y-80942282D02*
X144777857Y-81085139D01*
X144777857Y-81085139D02*
X144849285Y-81156568D01*
X144849285Y-81156568D02*
X144992142Y-81227996D01*
X144992142Y-81227996D02*
X145277857Y-81299425D01*
X145277857Y-81299425D02*
X145635000Y-81299425D01*
X145635000Y-81299425D02*
X145920714Y-81227996D01*
X145920714Y-81227996D02*
X146063571Y-81156568D01*
X146063571Y-81156568D02*
X146135000Y-81085139D01*
X146135000Y-81085139D02*
X146206428Y-80942282D01*
X146206428Y-80942282D02*
X146206428Y-80799425D01*
X146206428Y-80799425D02*
X146135000Y-80656568D01*
X146135000Y-80656568D02*
X146063571Y-80585139D01*
X146063571Y-80585139D02*
X145920714Y-80513710D01*
X145920714Y-80513710D02*
X145635000Y-80442282D01*
X145635000Y-80442282D02*
X145277857Y-80442282D01*
X145277857Y-80442282D02*
X144992142Y-80513710D01*
X144992142Y-80513710D02*
X144849285Y-80585139D01*
X144849285Y-80585139D02*
X144777857Y-80656568D01*
X144777857Y-80656568D02*
X144706428Y-80799425D01*
X145206428Y-82585139D02*
X146206428Y-82585139D01*
X144635000Y-82227996D02*
X145706428Y-81870853D01*
X145706428Y-81870853D02*
X145706428Y-82799424D01*
X144635000Y-84442281D02*
X146563571Y-83156567D01*
X144706428Y-85227996D02*
X144706428Y-85370853D01*
X144706428Y-85370853D02*
X144777857Y-85513710D01*
X144777857Y-85513710D02*
X144849285Y-85585139D01*
X144849285Y-85585139D02*
X144992142Y-85656567D01*
X144992142Y-85656567D02*
X145277857Y-85727996D01*
X145277857Y-85727996D02*
X145635000Y-85727996D01*
X145635000Y-85727996D02*
X145920714Y-85656567D01*
X145920714Y-85656567D02*
X146063571Y-85585139D01*
X146063571Y-85585139D02*
X146135000Y-85513710D01*
X146135000Y-85513710D02*
X146206428Y-85370853D01*
X146206428Y-85370853D02*
X146206428Y-85227996D01*
X146206428Y-85227996D02*
X146135000Y-85085139D01*
X146135000Y-85085139D02*
X146063571Y-85013710D01*
X146063571Y-85013710D02*
X145920714Y-84942281D01*
X145920714Y-84942281D02*
X145635000Y-84870853D01*
X145635000Y-84870853D02*
X145277857Y-84870853D01*
X145277857Y-84870853D02*
X144992142Y-84942281D01*
X144992142Y-84942281D02*
X144849285Y-85013710D01*
X144849285Y-85013710D02*
X144777857Y-85085139D01*
X144777857Y-85085139D02*
X144706428Y-85227996D01*
X144706428Y-86227995D02*
X144706428Y-87156567D01*
X144706428Y-87156567D02*
X145277857Y-86656567D01*
X145277857Y-86656567D02*
X145277857Y-86870852D01*
X145277857Y-86870852D02*
X145349285Y-87013710D01*
X145349285Y-87013710D02*
X145420714Y-87085138D01*
X145420714Y-87085138D02*
X145563571Y-87156567D01*
X145563571Y-87156567D02*
X145920714Y-87156567D01*
X145920714Y-87156567D02*
X146063571Y-87085138D01*
X146063571Y-87085138D02*
X146135000Y-87013710D01*
X146135000Y-87013710D02*
X146206428Y-86870852D01*
X146206428Y-86870852D02*
X146206428Y-86442281D01*
X146206428Y-86442281D02*
X146135000Y-86299424D01*
X146135000Y-86299424D02*
X146063571Y-86227995D01*
X144635000Y-88870852D02*
X146563571Y-87585138D01*
X144849285Y-89299424D02*
X144777857Y-89370852D01*
X144777857Y-89370852D02*
X144706428Y-89513710D01*
X144706428Y-89513710D02*
X144706428Y-89870852D01*
X144706428Y-89870852D02*
X144777857Y-90013710D01*
X144777857Y-90013710D02*
X144849285Y-90085138D01*
X144849285Y-90085138D02*
X144992142Y-90156567D01*
X144992142Y-90156567D02*
X145135000Y-90156567D01*
X145135000Y-90156567D02*
X145349285Y-90085138D01*
X145349285Y-90085138D02*
X146206428Y-89227995D01*
X146206428Y-89227995D02*
X146206428Y-90156567D01*
X144706428Y-91085138D02*
X144706428Y-91227995D01*
X144706428Y-91227995D02*
X144777857Y-91370852D01*
X144777857Y-91370852D02*
X144849285Y-91442281D01*
X144849285Y-91442281D02*
X144992142Y-91513709D01*
X144992142Y-91513709D02*
X145277857Y-91585138D01*
X145277857Y-91585138D02*
X145635000Y-91585138D01*
X145635000Y-91585138D02*
X145920714Y-91513709D01*
X145920714Y-91513709D02*
X146063571Y-91442281D01*
X146063571Y-91442281D02*
X146135000Y-91370852D01*
X146135000Y-91370852D02*
X146206428Y-91227995D01*
X146206428Y-91227995D02*
X146206428Y-91085138D01*
X146206428Y-91085138D02*
X146135000Y-90942281D01*
X146135000Y-90942281D02*
X146063571Y-90870852D01*
X146063571Y-90870852D02*
X145920714Y-90799423D01*
X145920714Y-90799423D02*
X145635000Y-90727995D01*
X145635000Y-90727995D02*
X145277857Y-90727995D01*
X145277857Y-90727995D02*
X144992142Y-90799423D01*
X144992142Y-90799423D02*
X144849285Y-90870852D01*
X144849285Y-90870852D02*
X144777857Y-90942281D01*
X144777857Y-90942281D02*
X144706428Y-91085138D01*
X144849285Y-92156566D02*
X144777857Y-92227994D01*
X144777857Y-92227994D02*
X144706428Y-92370852D01*
X144706428Y-92370852D02*
X144706428Y-92727994D01*
X144706428Y-92727994D02*
X144777857Y-92870852D01*
X144777857Y-92870852D02*
X144849285Y-92942280D01*
X144849285Y-92942280D02*
X144992142Y-93013709D01*
X144992142Y-93013709D02*
X145135000Y-93013709D01*
X145135000Y-93013709D02*
X145349285Y-92942280D01*
X145349285Y-92942280D02*
X146206428Y-92085137D01*
X146206428Y-92085137D02*
X146206428Y-93013709D01*
X144706428Y-94370851D02*
X144706428Y-93656565D01*
X144706428Y-93656565D02*
X145420714Y-93585137D01*
X145420714Y-93585137D02*
X145349285Y-93656565D01*
X145349285Y-93656565D02*
X145277857Y-93799423D01*
X145277857Y-93799423D02*
X145277857Y-94156565D01*
X145277857Y-94156565D02*
X145349285Y-94299423D01*
X145349285Y-94299423D02*
X145420714Y-94370851D01*
X145420714Y-94370851D02*
X145563571Y-94442280D01*
X145563571Y-94442280D02*
X145920714Y-94442280D01*
X145920714Y-94442280D02*
X146063571Y-94370851D01*
X146063571Y-94370851D02*
X146135000Y-94299423D01*
X146135000Y-94299423D02*
X146206428Y-94156565D01*
X146206428Y-94156565D02*
X146206428Y-93799423D01*
X146206428Y-93799423D02*
X146135000Y-93656565D01*
X146135000Y-93656565D02*
X146063571Y-93585137D01*
D12*
%TO.P,,3,VO*%
%TO.N,GND*%
X136144000Y-43586400D03*
%TD*%
D13*
%TO.P,,8,SPK2*%
%TO.N,Net-(DFR1-SPK2)*%
X105765600Y-55118000D03*
%TD*%
D14*
%TO.P,,3,VCC*%
%TO.N,Net-(DFR1-VCC)*%
X135991600Y-75082400D03*
%TD*%
D15*
%TO.P,U2,1,VI*%
%TO.N,Net-(SW1-C)*%
X141147800Y-63576200D03*
D12*
%TO.P,U2,2,GND*%
%TO.N,GND*%
X138607800Y-63576200D03*
%TO.P,U2,3,VO*%
%TO.N,Net-(DFR1-VCC)*%
X136067800Y-63576200D03*
%TD*%
%TO.P,,3,VO*%
%TO.N,+9V*%
X142951200Y-43688000D03*
%TD*%
D16*
%TO.P,A1,3V3,3.3V*%
%TO.N,unconnected-(A1-3.3V-Pad3V3)*%
X128180000Y-107080000D03*
%TO.P,A1,5V,5V*%
%TO.N,unconnected-(A1-Pad5V)*%
X128180000Y-81680000D03*
%TO.P,A1,A0,A0*%
%TO.N,Net-(SR1-OUT)*%
X128180000Y-102000000D03*
%TO.P,A1,A1,A1*%
%TO.N,unconnected-(A1-PadA1)*%
X128180000Y-99460000D03*
%TO.P,A1,A2,A2*%
%TO.N,unconnected-(A1-PadA2)*%
X128180000Y-96920000D03*
%TO.P,A1,A3,A3*%
%TO.N,unconnected-(A1-PadA3)*%
X128180000Y-94380000D03*
%TO.P,A1,A4,A4/SDA*%
%TO.N,unconnected-(A1-A4{slash}SDA-PadA4)*%
X128180000Y-91840000D03*
%TO.P,A1,A5,A5/SCL*%
%TO.N,unconnected-(A1-A5{slash}SCL-PadA5)*%
X128180000Y-89300000D03*
%TO.P,A1,A6,A6*%
%TO.N,unconnected-(A1-PadA6)*%
X128180000Y-86760000D03*
%TO.P,A1,A7,A7*%
%TO.N,unconnected-(A1-PadA7)*%
X128180000Y-84220000D03*
%TO.P,A1,B0,B0*%
%TO.N,unconnected-(A1-PadB0)*%
X128180000Y-104540000D03*
%TO.P,A1,B1,B1*%
%TO.N,unconnected-(A1-PadB1)*%
X128180000Y-79140000D03*
%TO.P,A1,D0,D0/RX*%
%TO.N,Net-(A1-D0{slash}RX)*%
X112940000Y-76600000D03*
%TO.P,A1,D1,D1/TX*%
%TO.N,Net-(A1-D1{slash}TX)*%
X112940000Y-74060000D03*
%TO.P,A1,D2,D2*%
%TO.N,unconnected-(A1-PadD2)*%
X112940000Y-84220000D03*
%TO.P,A1,D3,D3*%
%TO.N,unconnected-(A1-PadD3)*%
X112940000Y-86760000D03*
%TO.P,A1,D4,D4*%
%TO.N,Net-(DFR1-BUSY)*%
X112940000Y-89300000D03*
%TO.P,A1,D5,D5*%
%TO.N,unconnected-(A1-PadD5)*%
X112940000Y-91840000D03*
%TO.P,A1,D6,D6*%
%TO.N,unconnected-(A1-PadD6)*%
X112940000Y-94380000D03*
%TO.P,A1,D7,D7*%
%TO.N,unconnected-(A1-PadD7)*%
X112940000Y-96920000D03*
%TO.P,A1,D8,D8*%
%TO.N,unconnected-(A1-PadD8)*%
X112940000Y-99460000D03*
%TO.P,A1,D9,D9*%
%TO.N,unconnected-(A1-PadD9)*%
X112940000Y-102000000D03*
%TO.P,A1,D10,D10*%
%TO.N,unconnected-(A1-PadD10)*%
X112940000Y-104540000D03*
%TO.P,A1,D11,D11_MOSI*%
%TO.N,unconnected-(A1-D11_MOSI-PadD11)*%
X112940000Y-107080000D03*
%TO.P,A1,D12,D12_MISO*%
%TO.N,unconnected-(A1-D12_MISO-PadD12)*%
X112940000Y-109620000D03*
%TO.P,A1,D13,D13_SCK*%
%TO.N,unconnected-(A1-D13_SCK-PadD13)*%
X128180000Y-109620000D03*
D17*
%TO.P,A1,GND1,GND*%
%TO.N,GND*%
X112940000Y-81680000D03*
%TO.P,A1,GND2,GND*%
X128180000Y-76600000D03*
D16*
%TO.P,A1,RST,~{RESET}*%
%TO.N,unconnected-(A1-~{RESET}-PadRST)*%
X112940000Y-79140000D03*
%TO.P,A1,VIN,VIN*%
%TO.N,Net-(SW1-C)*%
X128180000Y-74060000D03*
%TD*%
D13*
%TO.P,DFR1,1,VCC*%
%TO.N,Net-(DFR1-VCC)*%
X128981200Y-65481200D03*
%TO.P,DFR1,2,RX*%
%TO.N,Net-(A1-D1{slash}TX)*%
X128981200Y-62941200D03*
%TO.P,DFR1,3,TX*%
%TO.N,Net-(A1-D0{slash}RX)*%
X128981200Y-60401200D03*
%TO.P,DFR1,4,DAC_R*%
%TO.N,unconnected-(DFR1-DAC_R-Pad4)*%
X128981200Y-57861200D03*
%TO.P,DFR1,5,DAC_I*%
%TO.N,unconnected-(DFR1-DAC_I-Pad5)*%
X128981200Y-55321200D03*
%TO.P,DFR1,6,SPK1*%
%TO.N,Net-(DFR1-SPK1)*%
X128981200Y-52781200D03*
%TO.P,DFR1,7,GND*%
%TO.N,GND*%
X128981200Y-50241200D03*
%TO.P,DFR1,8,SPK2*%
%TO.N,Net-(DFR1-SPK2)*%
X128981200Y-47701200D03*
%TO.P,DFR1,9,IO_2*%
%TO.N,unconnected-(DFR1-IO_2-Pad9)*%
X111201200Y-47701200D03*
%TO.P,DFR1,10,GND*%
%TO.N,unconnected-(DFR1-GND-Pad10)*%
X111201200Y-50241200D03*
%TO.P,DFR1,11,IO_2*%
%TO.N,unconnected-(DFR1-IO_2-Pad11)*%
X111201200Y-52781200D03*
%TO.P,DFR1,12,ADKEY_1*%
%TO.N,unconnected-(DFR1-ADKEY_1-Pad12)*%
X111201200Y-55321200D03*
%TO.P,DFR1,13,ADKEY_2*%
%TO.N,unconnected-(DFR1-ADKEY_2-Pad13)*%
X111201200Y-57861200D03*
%TO.P,DFR1,14,USB+*%
%TO.N,unconnected-(DFR1-USB+-Pad14)*%
X111201200Y-60401200D03*
%TO.P,DFR1,15,USB-*%
%TO.N,unconnected-(DFR1-USB--Pad15)*%
X111201200Y-62941200D03*
%TO.P,DFR1,16,BUSY*%
%TO.N,Net-(DFR1-BUSY)*%
X111201200Y-65481200D03*
%TD*%
D14*
%TO.P,,1,GND*%
%TO.N,GND*%
X133553200Y-81838800D03*
%TD*%
%TO.P,,2,OUT*%
%TO.N,Net-(SR1-OUT)*%
X133959600Y-102158800D03*
%TD*%
D13*
%TO.P,,6,SPK1*%
%TO.N,Net-(DFR1-SPK1)*%
X105867200Y-50901600D03*
%TD*%
D18*
%TO.N,GND*%
X112940000Y-81680000D02*
X123100000Y-81680000D01*
X123100000Y-81680000D02*
X128180000Y-76600000D01*
X133553200Y-81973200D02*
X133553200Y-77470000D01*
X133553200Y-77470000D02*
X132683200Y-76600000D01*
D19*
X111058800Y-60401200D02*
X111110000Y-60350000D01*
D18*
X132683200Y-76600000D02*
X128180000Y-76600000D01*
X127360000Y-76600000D02*
X111110000Y-60350000D01*
D20*
%TO.N,Net-(A1-D1{slash}TX)*%
X128676400Y-41859200D02*
X132588000Y-45770800D01*
X132588000Y-45770800D02*
X132588000Y-59334400D01*
X103174800Y-43789600D02*
X105105200Y-41859200D01*
X112940000Y-74060000D02*
X103174800Y-64294800D01*
X132588000Y-59334400D02*
X128981200Y-62941200D01*
X105105200Y-41859200D02*
X128676400Y-41859200D01*
X103174800Y-64294800D02*
X103174800Y-43789600D01*
%TO.N,unconnected-(DFR1-USB--Pad15)*%
X111110000Y-62890000D02*
X111059600Y-62839600D01*
%TO.N,Net-(DFR1-SPK1)*%
X105867200Y-47040800D02*
X105867200Y-50901600D01*
X120954800Y-44754800D02*
X108153200Y-44754800D01*
X108153200Y-44754800D02*
X105867200Y-47040800D01*
X128981200Y-52781200D02*
X120954800Y-44754800D01*
%TO.N,Net-(DFR1-VCC)*%
X136067800Y-63576200D02*
X136067800Y-75158600D01*
%TD*%
M02*
