%TF.GenerationSoftware,KiCad,Pcbnew,9.0.1*%
%TF.CreationDate,2025-04-20T20:44:27+02:00*%
%TF.ProjectId,Garcouille_V1,47617263-6f75-4696-9c6c-655f56312e6b,rev?*%
%TF.SameCoordinates,Original*%
%TF.FileFunction,Soldermask,Top*%
%TF.FilePolarity,Negative*%
%FSLAX46Y46*%
G04 Gerber Fmt 4.6, Leading zero omitted, Abs format (unit mm)*
G04 Created by KiCad (PCBNEW 9.0.1) date 2025-04-20 20:44:27*
%MOMM*%
%LPD*%
G01*
G04 APERTURE LIST*
G04 Aperture macros list*
%AMRoundRect*
0 Rectangle with rounded corners*
0 $1 Rounding radius*
0 $2 $3 $4 $5 $6 $7 $8 $9 X,Y pos of 4 corners*
0 Add a 4 corners polygon primitive as box body*
4,1,4,$2,$3,$4,$5,$6,$7,$8,$9,$2,$3,0*
0 Add four circle primitives for the rounded corners*
1,1,$1+$1,$2,$3*
1,1,$1+$1,$4,$5*
1,1,$1+$1,$6,$7*
1,1,$1+$1,$8,$9*
0 Add four rect primitives between the rounded corners*
20,1,$1+$1,$2,$3,$4,$5,0*
20,1,$1+$1,$4,$5,$6,$7,0*
20,1,$1+$1,$6,$7,$8,$9,0*
20,1,$1+$1,$8,$9,$2,$3,0*%
G04 Aperture macros list end*
%ADD10O,1.905000X2.000000*%
%ADD11C,1.524000*%
%ADD12C,1.500000*%
%ADD13R,1.905000X2.000000*%
%ADD14C,1.800000*%
%ADD15C,1.727200*%
%ADD16R,1.727200X1.727200*%
%ADD17RoundRect,0.250000X-0.250000X-0.550000X0.250000X-0.550000X0.250000X0.550000X-0.250000X0.550000X0*%
G04 APERTURE END LIST*
D10*
%TO.C,*%
X136144000Y-43586400D03*
%TD*%
D11*
%TO.C,*%
X105765600Y-55118000D03*
%TD*%
D12*
%TO.C,*%
X135991600Y-75082400D03*
%TD*%
D13*
%TO.C,U2*%
X141147800Y-63576200D03*
D10*
X138607800Y-63576200D03*
X136067800Y-63576200D03*
%TD*%
%TO.C,*%
X142951200Y-43688000D03*
%TD*%
D14*
%TO.C,A1*%
X112940000Y-71520000D03*
X112940000Y-112160000D03*
X128180000Y-71520000D03*
X128180000Y-112160000D03*
D15*
X128180000Y-107080000D03*
X128180000Y-81680000D03*
X128180000Y-102000000D03*
X128180000Y-99460000D03*
X128180000Y-96920000D03*
X128180000Y-94380000D03*
X128180000Y-91840000D03*
X128180000Y-89300000D03*
X128180000Y-86760000D03*
X128180000Y-84220000D03*
X128180000Y-104540000D03*
X128180000Y-79140000D03*
X112940000Y-76600000D03*
X112940000Y-74060000D03*
X112940000Y-84220000D03*
X112940000Y-86760000D03*
X112940000Y-89300000D03*
X112940000Y-91840000D03*
X112940000Y-94380000D03*
X112940000Y-96920000D03*
X112940000Y-99460000D03*
X112940000Y-102000000D03*
X112940000Y-104540000D03*
X112940000Y-107080000D03*
X112940000Y-109620000D03*
X128180000Y-109620000D03*
D16*
X112940000Y-81680000D03*
X128180000Y-76600000D03*
D15*
X112940000Y-79140000D03*
X128180000Y-74060000D03*
%TD*%
D11*
%TO.C,DFR1*%
X128981200Y-65481200D03*
X128981200Y-62941200D03*
X128981200Y-60401200D03*
X128981200Y-57861200D03*
X128981200Y-55321200D03*
X128981200Y-52781200D03*
X128981200Y-50241200D03*
X128981200Y-47701200D03*
X111201200Y-47701200D03*
X111201200Y-50241200D03*
X111201200Y-52781200D03*
X111201200Y-55321200D03*
X111201200Y-57861200D03*
X111201200Y-60401200D03*
X111201200Y-62941200D03*
X111201200Y-65481200D03*
%TD*%
D12*
%TO.C,*%
X133553200Y-81838800D03*
%TD*%
%TO.C,*%
X133959600Y-102158800D03*
%TD*%
D17*
%TO.C,SW1*%
X141150400Y-51645200D03*
X142900400Y-49345200D03*
X144650400Y-51645200D03*
%TD*%
D11*
%TO.C,*%
X105867200Y-50901600D03*
%TD*%
M02*
